<?xml version="1.0" encoding="UTF-8"?><svg id="Layer_1" xmlns="http://www.w3.org/2000/svg" viewBox="0 0 1231.17 454.57"><defs><style>.cls-1{fill:#f16522;stroke-width:0px;}</style></defs><path class="cls-1" d="M0,340.74h18.85v-135.26H0v-12.2h88.7v22.91c7.76-17,25.87-26.61,52.85-26.61,30.67,0,47.31,12.57,55.81,32.89,6.65-21.81,26.61-32.89,54.7-32.89,38.81,0,59.13,21.07,59.13,48.78v102.37h14.04v11.46h-99.41v-11.46h15.52v-124.92c0-9.61-1.85-11.46-8.13-11.46-20.7,0-33.26,20.7-33.26,46.2v90.18h15.52v11.46h-100.89v-11.46h15.52v-124.92c0-9.61-1.85-11.46-7.76-11.46-21.07,0-33.63,20.7-33.63,46.2v90.18h15.52v11.46H0v-11.46Z"/><polygon class="cls-1" points="336.31 340.74 355.16 340.74 355.16 205.48 336.31 205.48 336.31 193.28 426.49 193.28 426.49 340.74 445.7 340.74 445.7 352.2 336.31 352.2 336.31 340.74"/><path class="cls-1" d="M351.46,131.57c0-24.39,21.07-35.85,39.54-35.85s39.17,11.46,39.17,35.85-21.07,35.85-39.17,35.85-39.54-11.46-39.54-35.85Z"/><polygon class="cls-1" points="569.92 243.97 569.92 352.19 569.88 352.19 569.88 352.2 460.49 352.2 460.49 340.74 479.33 340.74 479.33 109.39 460.49 109.39 460.49 97.2 550.67 97.2 550.67 243.97 569.92 243.97"/><path class="cls-1" d="M570.41,408.01c0,16.63-9.98,26.61-23.65,27.35l-.37.74c4.43,4.43,9.98,7.39,20.33,7.39,19.22,0,27.35-9.24,27.35-34.74v-203.27h-19.22v-108.12h90.55c.37,38.44.37,223.8.37,258.91,0,79.09-45.83,98.31-95.35,98.31-42.87,0-63.2-20.7-63.2-44.35,0-18.85,12.94-31.41,32.89-31.41,16.26,0,30.31,10.35,30.31,29.2Z"/><path class="cls-1" d="M790.09,188.85c17.37,0,35.85,4.43,51.74,13.3l9.61-11.83h17l-15.52,18.48c18.48,14.04,31.78,35.11,31.78,63.94,0,56.91-51,83.89-94.61,83.89-17.37,0-36.22-4.43-52.11-12.94l-8.87,10.72h-17l14.78-17.74c-18.48-14.04-31.41-35.11-31.41-63.94,0-56.91,51-83.89,94.61-83.89ZM769.39,288.27l41.39-51c0-7.02-.37-13.67-.37-18.11-.37-13.67-8.13-18.85-20.33-18.85s-19.96,5.17-20.33,18.85c-.37,9.98-.37,22.54-.37,53.59v15.52ZM790.09,345.18c12.2,0,19.96-5.17,20.33-18.85.37-9.98.37-22.54.37-53.59v-15.89l-41.39,51c0,7.39,0,14.04.37,18.48.37,13.67,8.13,18.85,20.33,18.85Z"/><path class="cls-1" d="M1002.07,189.22c52.85,0,83.89,38.44,83.89,81.31h-105.33c0,61.35,8.87,71.33,34.37,71.33,34.37,0,57.28-17.37,59.13-52.11h11.09c0,32.89-22.17,66.89-82.05,66.89-55.07,0-96.46-28.83-96.46-82.05,0-59.87,51.74-85.37,95.35-85.37ZM1022.03,259.44v-11.46c0-36.22-2.22-47.67-20.7-47.67s-20.7,11.46-20.7,47.67v11.46h41.39Z"/><path class="cls-1" d="M1119.56,205.85h-25.87v-12.57c28.09-11.09,66.89-42.87,82.41-67.63h12.94v67.63h38.44v12.57h-38.44v124.92c0,7.02,2.59,8.5,7.76,8.5,14.04,0,22.91-12.57,22.91-43.24h11.46c0,30.67-5.54,60.61-54.33,60.61-35.11,0-57.65-15.52-57.65-43.24,0-25.87,0-78.35.37-107.55Z"/><path class="cls-1" d="M590.76,35.85c0-24.39,21.07-35.85,39.54-35.85s39.17,11.46,39.17,35.85-21.07,35.85-39.17,35.85-39.54-11.46-39.54-35.85Z"/></svg>